<?xml version="1.0" encoding="utf-8"?>
<!-- Svg Vector Icons : http://www.onlinewebfonts.com/icon -->
<!DOCTYPE svg PUBLIC "-//W3C//DTD SVG 1.1//EN" "http://www.w3.org/Graphics/SVG/1.1/DTD/svg11.dtd">
<svg version="1.1" xmlns="http://www.w3.org/2000/svg" xmlns:xlink="http://www.w3.org/1999/xlink" x="0px" y="0px" viewBox="0 0 256 256" enable-background="new 0 0 256 256" xml:space="preserve">
<metadata> Svg Vector Icons : http://www.onlinewebfonts.com/icon </metadata>
<g><g><path fill="#000000" d="M104.2,16.1c0,0,9.1-6.1,22.3-6.1c18.3,0,30.4,9.2,30.4,9.2l57.7,33.7c0,0,21.3,13.6,21.3,34.7c0,21.1,0,75.5,0,75.5s2.1,25.9-22.3,40.8c-24.4,15-64.8,36.7-64.8,36.7s-19.5,15.4-52.6-6.1L44.5,205c0,0-24.3-12-24.3-40.8c0-28.8,0-75.5,0-75.5s-1.7-22.5,26.3-38.8L104.2,16.1z"/></g></g>
</svg>